<svg xmlns="http://www.w3.org/2000/svg" xmlns:xlink="http://www.w3.org/1999/xlink" width="1080" zoomAndPan="magnify" viewBox="0 0 810 809.999993" height="1080" preserveAspectRatio="xMidYMid meet" version="1.0"><path fill="#ffffff" d="M 154.390625 77.195312 C 113.785156 77.195312 80.871094 110.109375 80.871094 150.710938 L 80.871094 665.34375 C 80.871094 705.945312 113.785156 738.859375 154.390625 738.859375 L 448.460938 738.859375 L 448.460938 812.378906 L 154.390625 812.378906 C 73.183594 812.378906 7.351562 746.546875 7.351562 665.34375 L 7.351562 150.710938 C 7.351562 69.507812 73.183594 3.675781 154.390625 3.675781 L 411.703125 3.675781 C 421.453125 3.675781 430.804688 7.550781 437.695312 14.441406 L 658.25 234.996094 C 665.144531 241.890625 669.019531 251.242188 669.019531 260.992188 L 669.019531 334.507812 L 595.5 334.507812 L 595.5 276.214844 L 396.476562 77.195312 Z M 154.390625 77.195312 " fill-opacity="1" fill-rule="evenodd"/><path fill="#ffffff" d="M 397.636719 6.472656 C 411.371094 0.785156 427.183594 3.929688 437.695312 14.441406 L 658.25 234.996094 C 668.765625 245.511719 671.910156 261.320312 666.21875 275.058594 C 660.53125 288.792969 647.128906 297.75 632.257812 297.75 L 521.980469 297.75 C 440.777344 297.75 374.945312 231.917969 374.945312 150.710938 L 374.945312 40.433594 C 374.945312 25.566406 383.898438 12.164062 397.636719 6.472656 Z M 448.460938 129.179688 L 448.460938 150.710938 C 448.460938 191.316406 481.375 224.230469 521.980469 224.230469 L 543.515625 224.230469 Z M 448.460938 129.179688 " fill-opacity="1" fill-rule="evenodd"/><path fill="#ffffff" d="M 540.359375 444.785156 C 489.605469 444.785156 448.460938 485.929688 448.460938 536.683594 C 448.460938 587.4375 489.605469 628.582031 540.359375 628.582031 C 591.113281 628.582031 632.257812 587.4375 632.257812 536.683594 C 632.257812 485.929688 591.113281 444.785156 540.359375 444.785156 Z M 374.945312 536.683594 C 374.945312 445.328125 449.003906 371.269531 540.359375 371.269531 C 631.71875 371.269531 705.777344 445.328125 705.777344 536.683594 C 705.777344 628.042969 631.71875 702.101562 540.359375 702.101562 C 449.003906 702.101562 374.945312 628.042969 374.945312 536.683594 Z M 374.945312 536.683594 " fill-opacity="1" fill-rule="evenodd"/><path fill="#ffffff" d="M 658.253906 602.589844 L 805.292969 749.628906 L 753.308594 801.613281 L 606.269531 654.574219 Z M 658.253906 602.589844 " fill-opacity="1" fill-rule="evenodd"/><path fill="#ffffff" d="M 154.390625 187.472656 L 338.183594 187.472656 L 338.183594 260.992188 L 154.390625 260.992188 Z M 154.390625 187.472656 " fill-opacity="1" fill-rule="evenodd"/><path fill="#ffffff" d="M 154.390625 371.269531 L 338.183594 371.269531 L 338.183594 444.785156 L 154.390625 444.785156 Z M 154.390625 371.269531 " fill-opacity="1" fill-rule="evenodd"/><path fill="#ffffff" d="M 154.390625 555.0625 L 338.183594 555.0625 L 338.183594 628.582031 L 154.390625 628.582031 Z M 154.390625 555.0625 " fill-opacity="1" fill-rule="evenodd"/></svg>