<svg xmlns="http://www.w3.org/2000/svg" xmlns:xlink="http://www.w3.org/1999/xlink" width="1080" zoomAndPan="magnify" viewBox="0 0 810 591.000005" height="788" preserveAspectRatio="xMidYMid meet" version="1.0"><defs><clipPath id="599b105ee1"><path d="M 2 0 L 808 0 L 808 590 L 2 590 Z M 2 0 " clip-rule="nonzero"/></clipPath></defs><g clip-path="url(#599b105ee1)"><path fill="#ffffff" d="M 807.136719 133.613281 C 807.136719 59.941406 747.414062 0.21875 673.742188 0.21875 C 530.777344 0.21875 278.378906 0.21875 135.410156 0.21875 C 61.738281 0.21875 2.003906 59.941406 2.003906 133.613281 C 2.003906 227.460938 2.003906 363.40625 2.003906 457.238281 C 2.003906 530.925781 61.738281 590.644531 135.410156 590.644531 C 278.378906 590.644531 530.777344 590.644531 673.742188 590.644531 C 747.414062 590.644531 807.136719 530.925781 807.136719 457.238281 Z M 513.539062 311.039062 L 422.875 395.570312 C 412.570312 405.183594 396.582031 405.183594 386.277344 395.570312 L 301.859375 316.875 L 103.359375 530.265625 C 113.164062 534.570312 124.011719 536.964844 135.410156 536.964844 C 135.410156 536.964844 673.742188 536.964844 673.742188 536.964844 C 685.363281 536.964844 696.390625 534.480469 706.347656 530.023438 Z M 65.050781 96.085938 L 262.597656 280.265625 L 64.339844 493.398438 C 58.800781 482.550781 55.683594 470.261719 55.683594 457.25 C 55.683594 457.238281 55.683594 133.613281 55.683594 133.613281 C 55.683594 120.046875 59.070312 107.269531 65.050781 96.085938 Z M 744.105469 96.085938 C 750.082031 107.269531 753.46875 120.046875 753.46875 133.613281 L 753.46875 457.238281 C 753.46875 470.03125 750.457031 482.101562 745.109375 492.820312 L 552.816406 274.429688 Z M 704.195312 59.914062 L 404.570312 339.25 L 104.957031 59.914062 C 114.347656 56.039062 124.628906 53.886719 135.410156 53.886719 C 135.410156 53.886719 673.742188 53.886719 673.742188 53.886719 C 684.523438 53.886719 694.816406 56.039062 704.195312 59.914062 Z M 704.195312 59.914062 " fill-opacity="1" fill-rule="evenodd"/></g></svg>