<svg xmlns="http://www.w3.org/2000/svg" xmlns:xlink="http://www.w3.org/1999/xlink" width="826" zoomAndPan="magnify" viewBox="0 0 619.5 585.000005" height="780" preserveAspectRatio="xMidYMid meet" version="1.0"><path fill="#000000" d="M 273.210938 445.191406 C 273.210938 450.5 268.910156 454.800781 263.605469 454.800781 L 193.519531 454.800781 C 188.214844 454.800781 183.914062 450.5 183.914062 445.191406 C 183.914062 439.882812 188.214844 435.578125 193.519531 435.578125 L 263.605469 435.578125 C 268.910156 435.578125 273.210938 439.882812 273.210938 445.191406 Z M 445.835938 245.117188 L 417.804688 245.117188 C 412.5 245.117188 408.199219 249.417969 408.199219 254.726562 C 408.199219 260.035156 412.5 264.335938 417.804688 264.335938 L 445.835938 264.335938 C 451.140625 264.335938 455.441406 260.035156 455.441406 254.726562 C 455.441406 249.417969 451.140625 245.117188 445.835938 245.117188 Z M 445.835938 435.578125 L 394.445312 435.578125 C 389.140625 435.578125 384.839844 439.882812 384.839844 445.191406 C 384.839844 450.5 389.140625 454.800781 394.445312 454.800781 L 445.835938 454.800781 C 451.140625 454.800781 455.441406 450.5 455.441406 445.191406 C 455.441406 439.882812 451.140625 435.578125 445.835938 435.578125 Z M 256.988281 64.261719 C 256.988281 58.957031 252.6875 54.652344 247.382812 54.652344 L 193.519531 54.652344 C 188.214844 54.652344 183.914062 58.957031 183.914062 64.261719 C 183.914062 69.570312 188.214844 73.875 193.519531 73.875 L 247.382812 73.875 C 252.6875 73.875 256.988281 69.570312 256.988281 64.261719 Z M 360.101562 127.75 C 360.101562 122.445312 355.800781 118.140625 350.496094 118.140625 L 257.632812 118.140625 C 252.328125 118.140625 248.027344 122.445312 248.027344 127.75 C 248.027344 133.058594 252.328125 137.363281 257.632812 137.363281 L 350.496094 137.363281 C 355.800781 137.363281 360.101562 133.058594 360.101562 127.75 Z M 220.722656 118.140625 L 193.519531 118.140625 C 188.214844 118.140625 183.914062 122.445312 183.914062 127.75 C 183.914062 133.058594 188.214844 137.363281 193.519531 137.363281 L 220.722656 137.363281 C 226.027344 137.363281 230.328125 133.058594 230.328125 127.75 C 230.328125 122.445312 226.027344 118.140625 220.722656 118.140625 Z M 368.527344 372.09375 L 339.691406 372.09375 C 334.386719 372.09375 330.085938 376.394531 330.085938 381.703125 C 330.085938 387.011719 334.386719 391.3125 339.691406 391.3125 L 368.527344 391.3125 C 373.828125 391.3125 378.128906 387.011719 378.128906 381.703125 C 378.128906 376.394531 373.828125 372.09375 368.527344 372.09375 Z M 355.792969 435.578125 L 311.425781 435.578125 C 306.121094 435.578125 301.820312 439.882812 301.820312 445.191406 C 301.820312 450.5 306.121094 454.800781 311.425781 454.800781 L 355.792969 454.800781 C 361.097656 454.800781 365.398438 450.5 365.398438 445.191406 C 365.398438 439.882812 361.097656 435.578125 355.792969 435.578125 Z M 301.648438 73.875 L 445.835938 73.875 C 451.140625 73.875 455.441406 69.570312 455.441406 64.261719 C 455.441406 58.957031 451.140625 54.652344 445.835938 54.652344 L 301.648438 54.652344 C 296.34375 54.652344 292.042969 58.957031 292.042969 64.261719 C 292.042969 69.570312 296.34375 73.875 301.648438 73.875 Z M 359.113281 264.335938 L 378.378906 264.335938 C 383.683594 264.335938 387.984375 260.035156 387.984375 254.726562 C 387.984375 249.417969 383.683594 245.117188 378.378906 245.117188 L 359.113281 245.117188 C 353.8125 245.117188 349.511719 249.417969 349.511719 254.726562 C 349.511719 260.035156 353.8125 264.335938 359.113281 264.335938 Z M 340.066406 318.214844 C 340.066406 323.523438 344.367188 327.828125 349.671875 327.828125 L 388.015625 327.828125 C 393.320312 327.828125 397.621094 323.523438 397.621094 318.214844 C 397.621094 312.90625 393.320312 308.605469 388.015625 308.605469 L 349.671875 308.605469 C 344.367188 308.605469 340.066406 312.90625 340.066406 318.214844 Z M 445.835938 118.140625 L 389.210938 118.140625 C 383.90625 118.140625 379.605469 122.445312 379.605469 127.75 C 379.605469 133.058594 383.90625 137.363281 389.210938 137.363281 L 445.835938 137.363281 C 451.140625 137.363281 455.441406 133.058594 455.441406 127.75 C 455.441406 122.445312 451.140625 118.140625 445.835938 118.140625 Z M 445.835938 181.628906 L 362.191406 181.628906 C 356.886719 181.628906 352.585938 185.929688 352.585938 191.238281 C 352.585938 196.546875 356.886719 200.851562 362.191406 200.851562 L 445.835938 200.851562 C 451.140625 200.851562 455.441406 196.546875 455.441406 191.238281 C 455.441406 185.929688 451.140625 181.628906 445.835938 181.628906 Z M 80.828125 286.679688 C 80.828125 224.882812 131.074219 174.605469 192.835938 174.605469 C 254.597656 174.605469 304.84375 224.882812 304.84375 286.679688 C 304.84375 348.480469 254.597656 398.757812 192.835938 398.757812 C 131.074219 398.757812 80.828125 348.480469 80.828125 286.679688 Z M 100.035156 286.679688 C 100.035156 337.882812 141.667969 379.539062 192.835938 379.539062 C 244.003906 379.539062 285.636719 337.882812 285.636719 286.679688 C 285.636719 235.480469 244.007812 193.824219 192.835938 193.824219 C 141.664062 193.824219 100.035156 235.480469 100.035156 286.679688 Z M 614.796875 146.453125 L 550.3125 258.207031 L 550.3125 525.582031 C 550.3125 540.523438 538.164062 552.679688 523.230469 552.679688 L 202.710938 552.679688 C 187.777344 552.679688 175.628906 540.523438 175.628906 525.582031 L 175.628906 509.355469 L 159.417969 509.355469 C 144.484375 509.355469 132.335938 497.203125 132.335938 482.257812 L 132.335938 466.621094 L 75.5625 565.015625 C 68.621094 577.046875 55.980469 583.78125 43.003906 583.78125 C 36.640625 583.78125 30.199219 582.164062 24.304688 578.757812 C 6.386719 568.40625 0.226562 545.398438 10.570312 527.472656 L 75.035156 415.75 C 76.632812 412.980469 79.214844 411 82.304688 410.171875 C 85.394531 409.339844 88.625 409.765625 91.390625 411.367188 L 91.527344 411.445312 L 101.125 394.8125 C 70.496094 368.765625 51.027344 329.957031 51.027344 286.679688 C 51.027344 230.082031 84.320312 181.125 132.335938 158.367188 L 132.335938 27.195312 C 132.335938 12.253906 144.484375 0.0976562 159.417969 0.0976562 L 479.9375 0.0976562 C 494.871094 0.0976562 507.019531 12.253906 507.019531 27.195312 L 507.019531 43.417969 L 523.234375 43.417969 C 538.164062 43.417969 550.316406 55.574219 550.316406 70.515625 L 550.316406 102.492188 C 557.519531 95.183594 569.003906 93.316406 578.292969 98.679688 L 606.34375 114.886719 C 611.679688 117.96875 615.496094 122.953125 617.09375 128.921875 C 618.691406 134.890625 617.875 141.117188 614.796875 146.453125 Z M 578.09375 171.617188 L 543.316406 151.523438 L 428.496094 350.515625 L 463.277344 370.609375 L 578.09375 171.613281 Z M 420.804688 404.027344 L 448.878906 384.484375 L 423.683594 369.929688 Z M 507.019531 62.640625 L 507.019531 175.984375 L 531.105469 134.242188 L 531.105469 70.515625 C 531.105469 66.171875 527.574219 62.640625 523.234375 62.640625 Z M 192.835938 409.355469 C 260.4375 409.355469 315.433594 354.324219 315.433594 286.679688 C 315.433594 219.039062 260.4375 164.007812 192.835938 164.007812 C 125.234375 164.007812 70.234375 219.039062 70.234375 286.679688 C 70.234375 354.324219 125.234375 409.355469 192.835938 409.355469 Z M 108.164062 421.058594 L 118.867188 427.242188 L 127.363281 412.515625 C 123.703125 410.601562 120.132812 408.539062 116.667969 406.324219 Z M 101.789062 481.117188 L 70.070312 462.792969 L 27.207031 537.082031 C 22.15625 545.832031 25.164062 557.0625 33.910156 562.113281 C 42.65625 567.167969 53.878906 564.15625 58.925781 555.40625 Z M 119.769531 449.957031 L 88.050781 431.632812 L 79.675781 446.148438 L 111.398438 464.46875 Z M 159.417969 490.136719 L 479.9375 490.136719 C 484.28125 490.136719 487.808594 486.605469 487.808594 482.257812 L 487.808594 366.53125 L 475.125 388.515625 C 474.417969 389.738281 473.449219 390.792969 472.292969 391.597656 L 428.738281 421.921875 C 425.71875 424.019531 422.253906 425.082031 418.773438 425.082031 C 415.777344 425.082031 412.769531 424.292969 410.027344 422.710938 C 404.101562 419.285156 400.777344 412.921875 401.355469 406.101562 L 405.820312 353.199219 C 405.9375 351.789062 406.367188 350.425781 407.070312 349.203125 L 487.8125 209.273438 L 487.8125 27.195312 C 487.8125 22.851562 484.28125 19.320312 479.941406 19.320312 L 159.417969 19.320312 C 155.074219 19.320312 151.546875 22.851562 151.546875 27.195312 L 151.546875 150.925781 C 164.617188 146.9375 178.476562 144.785156 192.835938 144.785156 C 271.03125 144.785156 334.644531 208.4375 334.644531 286.679688 C 334.644531 364.921875 271.03125 428.574219 192.835938 428.574219 C 178.480469 428.574219 164.617188 426.421875 151.546875 422.433594 L 151.546875 482.257812 C 151.546875 486.601562 155.074219 490.136719 159.417969 490.136719 Z M 531.105469 291.496094 L 507.019531 333.238281 L 507.019531 482.257812 C 507.019531 497.203125 494.871094 509.355469 479.9375 509.355469 L 194.839844 509.355469 L 194.839844 525.582031 C 194.839844 529.921875 198.371094 533.457031 202.710938 533.457031 L 523.234375 533.457031 C 527.574219 533.457031 531.105469 529.925781 531.105469 525.582031 Z M 598.535156 133.894531 C 598.378906 133.3125 597.9375 132.226562 596.738281 131.535156 L 568.6875 115.328125 C 566.832031 114.257812 564.449219 114.894531 563.378906 116.75 L 552.921875 134.878906 L 587.703125 154.96875 L 598.160156 136.84375 C 598.855469 135.640625 598.695312 134.480469 598.539062 133.894531 Z M 148.503906 339.625 L 118.890625 302.339844 C 114.890625 297.304688 113.085938 291.007812 113.816406 284.613281 C 114.546875 278.214844 117.722656 272.488281 122.757812 268.480469 C 127.796875 264.476562 134.089844 262.667969 140.480469 263.402344 C 146.871094 264.128906 152.597656 267.308594 156.601562 272.347656 L 170.132812 289.390625 L 221.804688 237.6875 C 231.207031 228.285156 246.5 228.285156 255.902344 237.6875 C 265.304688 247.09375 265.304688 262.402344 255.902344 271.808594 L 185.140625 342.613281 C 180.589844 347.164062 174.480469 349.679688 168.117188 349.679688 C 167.410156 349.679688 166.699219 349.648438 165.984375 349.585938 C 158.960938 348.964844 152.605469 345.34375 148.5 339.625 Z M 133.929688 290.382812 L 163.703125 327.871094 C 163.828125 328.027344 163.945312 328.1875 164.058594 328.347656 C 165.207031 329.992188 166.8125 330.363281 167.671875 330.4375 C 168.523438 330.511719 170.152344 330.429688 171.558594 329.023438 L 242.320312 258.214844 C 243.246094 257.289062 243.753906 256.058594 243.753906 254.75 C 243.753906 253.4375 243.246094 252.207031 242.320312 251.28125 C 240.40625 249.367188 237.296875 249.367188 235.386719 251.28125 L 176.105469 310.601562 C 174.167969 312.535156 171.496094 313.546875 168.765625 313.398438 C 166.035156 313.242188 163.496094 311.925781 161.792969 309.785156 L 141.5625 284.308594 C 140.46875 282.933594 139.046875 282.582031 138.300781 282.5 C 138.144531 282.480469 137.957031 282.46875 137.75 282.46875 C 136.949219 282.46875 135.804688 282.660156 134.714844 283.527344 C 133.339844 284.621094 132.988281 286.042969 132.902344 286.792969 C 132.820312 287.542969 132.835938 289.003906 133.929688 290.378906 Z M 133.929688 290.382812 " fill-opacity="1" fill-rule="nonzero"/></svg>