<svg xmlns="http://www.w3.org/2000/svg" xmlns:xlink="http://www.w3.org/1999/xlink" width="1080" zoomAndPan="magnify" viewBox="0 0 810 540.750001" height="721" preserveAspectRatio="xMidYMid meet" version="1.0"><defs><clipPath id="c18d6982e0"><path d="M 0.1875 408 L 809.8125 408 L 809.8125 540.292969 L 0.1875 540.292969 Z M 0.1875 408 " clip-rule="nonzero"/></clipPath><clipPath id="6f8814e08f"><path d="M 107 0.0742188 L 703 0.0742188 L 703 376 L 107 376 Z M 107 0.0742188 " clip-rule="nonzero"/></clipPath><clipPath id="ee49762eab"><path d="M 0.1875 408 L 809.8125 408 L 809.8125 540.292969 L 0.1875 540.292969 Z M 0.1875 408 " clip-rule="nonzero"/></clipPath><clipPath id="f4666a20cb"><path d="M 107 0.0742188 L 703 0.0742188 L 703 376 L 107 376 Z M 107 0.0742188 " clip-rule="nonzero"/></clipPath><clipPath id="570e026360"><path d="M 0.1875 408 L 809.8125 408 L 809.8125 540.292969 L 0.1875 540.292969 Z M 0.1875 408 " clip-rule="nonzero"/></clipPath><clipPath id="5e9087ce36"><path d="M 107 0.0742188 L 703 0.0742188 L 703 376 L 107 376 Z M 107 0.0742188 " clip-rule="nonzero"/></clipPath></defs><g clip-path="url(#c18d6982e0)"><path fill="#ffffff" d="M 521.808594 506.289062 L 288.191406 506.289062 C 286.585938 506.289062 285.554688 504.59375 286.296875 503.171875 L 304.277344 468.554688 C 304.644531 467.84375 305.378906 467.402344 306.175781 467.402344 L 503.824219 467.402344 C 504.621094 467.402344 505.355469 467.84375 505.722656 468.554688 L 523.703125 503.171875 C 524.445312 504.59375 523.414062 506.289062 521.808594 506.289062 Z M 804.652344 510.21875 L 707.90625 413.480469 C 704.605469 410.171875 700.128906 408.320312 695.453125 408.320312 L 114.546875 408.320312 C 109.871094 408.320312 105.394531 410.171875 102.085938 413.480469 L 5.347656 510.21875 C 2.039062 513.527344 0.1875 518.003906 0.1875 522.679688 C 0.1875 532.40625 8.074219 540.292969 17.804688 540.292969 L 792.195312 540.292969 C 801.925781 540.292969 809.8125 532.40625 809.8125 522.679688 C 809.8125 518.003906 807.960938 513.527344 804.652344 510.21875 " fill-opacity="1" fill-rule="nonzero"/></g><g clip-path="url(#6f8814e08f)"><path fill="#ffffff" d="M 673.796875 0.265625 L 136.203125 0.265625 C 120.652344 0.265625 107.925781 12.992188 107.925781 28.546875 L 107.925781 347.71875 C 107.925781 363.269531 120.652344 375.996094 136.203125 375.996094 L 673.796875 375.996094 C 689.347656 375.996094 702.074219 363.269531 702.074219 347.71875 L 702.074219 28.546875 C 702.074219 12.992188 689.347656 0.265625 673.796875 0.265625 Z M 669.34375 33 L 669.34375 343.265625 L 140.65625 343.265625 L 140.65625 33 L 669.34375 33 " fill-opacity="1" fill-rule="nonzero"/></g><g clip-path="url(#ee49762eab)"><path fill="#ffffff" d="M 521.808594 506.289062 L 288.191406 506.289062 C 286.585938 506.289062 285.554688 504.59375 286.296875 503.171875 L 304.277344 468.554688 C 304.644531 467.84375 305.378906 467.402344 306.175781 467.402344 L 503.824219 467.402344 C 504.621094 467.402344 505.355469 467.84375 505.722656 468.554688 L 523.703125 503.171875 C 524.445312 504.59375 523.414062 506.289062 521.808594 506.289062 Z M 804.652344 510.21875 L 707.90625 413.480469 C 704.605469 410.171875 700.128906 408.320312 695.453125 408.320312 L 114.546875 408.320312 C 109.871094 408.320312 105.394531 410.171875 102.085938 413.480469 L 5.347656 510.21875 C 2.039062 513.527344 0.1875 518.003906 0.1875 522.679688 C 0.1875 532.40625 8.074219 540.292969 17.804688 540.292969 L 792.195312 540.292969 C 801.925781 540.292969 809.8125 532.40625 809.8125 522.679688 C 809.8125 518.003906 807.960938 513.527344 804.652344 510.21875 " fill-opacity="1" fill-rule="nonzero"/></g><g clip-path="url(#f4666a20cb)"><path fill="#ffffff" d="M 673.796875 0.265625 L 136.203125 0.265625 C 120.652344 0.265625 107.925781 12.992188 107.925781 28.546875 L 107.925781 347.71875 C 107.925781 363.269531 120.652344 375.996094 136.203125 375.996094 L 673.796875 375.996094 C 689.347656 375.996094 702.074219 363.269531 702.074219 347.71875 L 702.074219 28.546875 C 702.074219 12.992188 689.347656 0.265625 673.796875 0.265625 Z M 669.34375 33 L 669.34375 343.265625 L 140.65625 343.265625 L 140.65625 33 L 669.34375 33 " fill-opacity="1" fill-rule="nonzero"/></g><g clip-path="url(#570e026360)"><path fill="#ffffff" d="M 521.808594 506.289062 L 288.191406 506.289062 C 286.585938 506.289062 285.554688 504.59375 286.296875 503.171875 L 304.277344 468.554688 C 304.644531 467.84375 305.378906 467.402344 306.175781 467.402344 L 503.824219 467.402344 C 504.621094 467.402344 505.355469 467.84375 505.722656 468.554688 L 523.703125 503.171875 C 524.445312 504.59375 523.414062 506.289062 521.808594 506.289062 Z M 804.652344 510.21875 L 707.90625 413.480469 C 704.605469 410.171875 700.128906 408.320312 695.453125 408.320312 L 114.546875 408.320312 C 109.871094 408.320312 105.394531 410.171875 102.085938 413.480469 L 5.347656 510.21875 C 2.039062 513.527344 0.1875 518.003906 0.1875 522.679688 C 0.1875 532.40625 8.074219 540.292969 17.804688 540.292969 L 792.195312 540.292969 C 801.925781 540.292969 809.8125 532.40625 809.8125 522.679688 C 809.8125 518.003906 807.960938 513.527344 804.652344 510.21875 " fill-opacity="1" fill-rule="nonzero"/></g><g clip-path="url(#5e9087ce36)"><path fill="#ffffff" d="M 673.796875 0.265625 L 136.203125 0.265625 C 120.652344 0.265625 107.925781 12.992188 107.925781 28.546875 L 107.925781 347.71875 C 107.925781 363.269531 120.652344 375.996094 136.203125 375.996094 L 673.796875 375.996094 C 689.347656 375.996094 702.074219 363.269531 702.074219 347.71875 L 702.074219 28.546875 C 702.074219 12.992188 689.347656 0.265625 673.796875 0.265625 Z M 669.34375 33 L 669.34375 343.265625 L 140.65625 343.265625 L 140.65625 33 L 669.34375 33 " fill-opacity="1" fill-rule="nonzero"/></g></svg>