<svg xmlns="http://www.w3.org/2000/svg" xmlns:xlink="http://www.w3.org/1999/xlink" width="1080" zoomAndPan="magnify" viewBox="0 0 810 540.750001" height="721" preserveAspectRatio="xMidYMid meet" version="1.0"><defs><clipPath id="a7649c5167"><path d="M 0.1875 408 L 809.8125 408 L 809.8125 540.300781 L 0.1875 540.300781 Z M 0.1875 408 " clip-rule="nonzero"/></clipPath></defs><g clip-path="url(#a7649c5167)"><path fill="#000000" d="M 521.808594 506.292969 L 288.191406 506.292969 C 286.585938 506.292969 285.554688 504.597656 286.296875 503.171875 L 304.277344 468.550781 C 304.644531 467.839844 305.378906 467.398438 306.175781 467.398438 L 503.824219 467.398438 C 504.621094 467.398438 505.355469 467.839844 505.722656 468.550781 L 523.703125 503.171875 C 524.445312 504.597656 523.414062 506.292969 521.808594 506.292969 Z M 804.652344 510.21875 L 707.90625 413.46875 C 704.605469 410.160156 700.128906 408.304688 695.453125 408.304688 L 114.546875 408.304688 C 109.871094 408.304688 105.394531 410.160156 102.085938 413.46875 L 5.347656 510.21875 C 2.039062 513.527344 0.1875 518.007812 0.1875 522.683594 C 0.1875 532.414062 8.074219 540.300781 17.804688 540.300781 L 792.195312 540.300781 C 801.925781 540.300781 809.8125 532.414062 809.8125 522.683594 C 809.8125 518.007812 807.960938 513.527344 804.652344 510.21875 " fill-opacity="1" fill-rule="nonzero"/></g><path fill="#000000" d="M 673.796875 0.191406 L 136.203125 0.191406 C 120.652344 0.191406 107.925781 12.921875 107.925781 28.476562 L 107.925781 347.695312 C 107.925781 363.25 120.652344 375.980469 136.203125 375.980469 L 673.796875 375.980469 C 689.347656 375.980469 702.074219 363.25 702.074219 347.695312 L 702.074219 28.476562 C 702.074219 12.921875 689.347656 0.191406 673.796875 0.191406 Z M 669.34375 32.929688 L 669.34375 343.242188 L 140.65625 343.242188 L 140.65625 32.929688 L 669.34375 32.929688 " fill-opacity="1" fill-rule="nonzero"/></svg>