<svg xmlns="http://www.w3.org/2000/svg" xmlns:xlink="http://www.w3.org/1999/xlink" width="1080" zoomAndPan="magnify" viewBox="0 0 810 591.000005" height="788" preserveAspectRatio="xMidYMid meet" version="1.0"><defs><clipPath id="fe7a6933a5"><path d="M 0.683594 432 L 809.316406 432 L 809.316406 564.757812 L 0.683594 564.757812 Z M 0.683594 432 " clip-rule="nonzero"/></clipPath><clipPath id="b9ad76ca76"><path d="M 108 25.121094 L 702 25.121094 L 702 401 L 108 401 Z M 108 25.121094 " clip-rule="nonzero"/></clipPath></defs><g clip-path="url(#fe7a6933a5)"><path fill="#000000" d="M 521.664062 530.789062 L 288.335938 530.789062 C 286.730469 530.789062 285.703125 529.097656 286.441406 527.675781 L 304.402344 493.09375 C 304.769531 492.386719 305.5 491.945312 306.296875 491.945312 L 503.703125 491.945312 C 504.5 491.945312 505.234375 492.386719 505.597656 493.09375 L 523.558594 527.675781 C 524.296875 529.097656 523.269531 530.789062 521.664062 530.789062 Z M 804.160156 534.714844 L 707.535156 438.082031 C 704.238281 434.777344 699.765625 432.925781 695.097656 432.925781 L 114.902344 432.925781 C 110.234375 432.925781 105.761719 434.777344 102.457031 438.082031 L 5.839844 534.714844 C 2.535156 538.019531 0.683594 542.492188 0.683594 547.160156 C 0.683594 556.878906 8.5625 564.757812 18.277344 564.757812 L 791.722656 564.757812 C 801.4375 564.757812 809.316406 556.878906 809.316406 547.160156 C 809.316406 542.492188 807.464844 538.019531 804.160156 534.714844 " fill-opacity="1" fill-rule="nonzero"/></g><g clip-path="url(#b9ad76ca76)"><path fill="#000000" d="M 673.464844 25.3125 L 136.535156 25.3125 C 121 25.3125 108.289062 38.023438 108.289062 53.5625 L 108.289062 372.386719 C 108.289062 387.925781 121 400.636719 136.535156 400.636719 L 673.464844 400.636719 C 689 400.636719 701.710938 387.925781 701.710938 372.386719 L 701.710938 53.5625 C 701.710938 38.023438 689 25.3125 673.464844 25.3125 Z M 669.019531 58.011719 L 669.019531 367.941406 L 140.980469 367.941406 L 140.980469 58.011719 L 669.019531 58.011719 " fill-opacity="1" fill-rule="nonzero"/></g></svg>