<svg xmlns="http://www.w3.org/2000/svg" xmlns:xlink="http://www.w3.org/1999/xlink" width="1080" zoomAndPan="magnify" viewBox="0 0 810 591.000005" height="788" preserveAspectRatio="xMidYMid meet" version="1.0"><defs><clipPath id="fba3bd3b66"><path d="M 71.351562 0 L 738.472656 0 L 738.472656 590 L 71.351562 590 Z M 71.351562 0 " clip-rule="nonzero"/></clipPath></defs><g clip-path="url(#fba3bd3b66)"><path fill="#000000" d="M 738.460938 427.539062 L 738.460938 51.246094 C 738.460938 49.566406 738.378906 47.890625 738.214844 46.222656 C 738.050781 44.550781 737.804688 42.894531 737.476562 41.246094 C 737.148438 39.601562 736.742188 37.976562 736.253906 36.367188 C 735.765625 34.761719 735.203125 33.183594 734.5625 31.632812 C 733.917969 30.082031 733.203125 28.566406 732.410156 27.089844 C 731.621094 25.609375 730.757812 24.171875 729.828125 22.773438 C 728.894531 21.378906 727.894531 20.03125 726.832031 18.734375 C 725.765625 17.4375 724.640625 16.195312 723.457031 15.007812 C 722.269531 13.824219 721.027344 12.695312 719.730469 11.632812 C 718.433594 10.566406 717.085938 9.570312 715.691406 8.636719 C 714.296875 7.703125 712.859375 6.84375 711.378906 6.050781 C 709.898438 5.257812 708.386719 4.542969 706.835938 3.902344 C 705.285156 3.257812 703.707031 2.695312 702.101562 2.207031 C 700.496094 1.71875 698.871094 1.3125 697.222656 0.984375 C 695.578125 0.65625 693.921875 0.410156 692.25 0.246094 C 690.582031 0.0820312 688.90625 0 687.230469 0 L 122.59375 0 C 120.917969 0 119.242188 0.0820312 117.574219 0.246094 C 115.902344 0.410156 114.246094 0.65625 112.601562 0.984375 C 110.953125 1.3125 109.328125 1.71875 107.722656 2.207031 C 106.117188 2.695312 104.539062 3.257812 102.988281 3.902344 C 101.441406 4.542969 99.925781 5.257812 98.445312 6.050781 C 96.964844 6.84375 95.527344 7.703125 94.132812 8.636719 C 92.738281 9.570312 91.390625 10.566406 90.09375 11.632812 C 88.796875 12.695312 87.554688 13.820312 86.371094 15.007812 C 85.183594 16.195312 84.058594 17.4375 82.992188 18.734375 C 81.929688 20.03125 80.929688 21.378906 79.996094 22.773438 C 79.066406 24.167969 78.203125 25.609375 77.414062 27.085938 C 76.621094 28.566406 75.90625 30.082031 75.265625 31.632812 C 74.621094 33.183594 74.058594 34.761719 73.570312 36.367188 C 73.082031 37.976562 72.675781 39.601562 72.347656 41.246094 C 72.019531 42.894531 71.773438 44.550781 71.609375 46.222656 C 71.445312 47.890625 71.363281 49.566406 71.363281 51.246094 L 71.363281 427.539062 C 71.363281 429.214844 71.445312 430.890625 71.609375 432.5625 C 71.773438 434.230469 72.019531 435.890625 72.347656 437.535156 C 72.675781 439.179688 73.082031 440.808594 73.570312 442.414062 C 74.058594 444.019531 74.621094 445.597656 75.261719 447.148438 C 75.90625 448.699219 76.621094 450.214844 77.414062 451.695312 C 78.203125 453.175781 79.066406 454.613281 79.996094 456.007812 C 80.929688 457.402344 81.929688 458.75 82.992188 460.046875 C 84.058594 461.34375 85.183594 462.585938 86.367188 463.773438 C 87.554688 464.960938 88.796875 466.085938 90.09375 467.148438 C 91.390625 468.214844 92.738281 469.214844 94.132812 470.144531 C 95.527344 471.078125 96.964844 471.941406 98.445312 472.730469 C 99.925781 473.523438 101.4375 474.238281 102.988281 474.882812 C 104.539062 475.523438 106.117188 476.089844 107.722656 476.574219 C 109.328125 477.0625 110.953125 477.46875 112.601562 477.796875 C 114.246094 478.125 115.902344 478.371094 117.574219 478.535156 C 119.242188 478.699219 120.917969 478.78125 122.59375 478.78125 L 335.015625 478.78125 L 335.015625 508.4375 C 335.015625 509.789062 334.949219 511.140625 334.816406 512.488281 C 334.683594 513.835938 334.484375 515.175781 334.21875 516.503906 C 333.957031 517.832031 333.628906 519.144531 333.234375 520.441406 C 332.839844 521.734375 332.386719 523.011719 331.867188 524.261719 C 331.347656 525.511719 330.769531 526.734375 330.132812 527.929688 C 329.496094 529.125 328.800781 530.285156 328.046875 531.410156 C 327.292969 532.535156 326.488281 533.621094 325.628906 534.667969 C 324.769531 535.71875 323.863281 536.71875 322.90625 537.675781 C 321.949219 538.632812 320.945312 539.542969 319.898438 540.402344 C 318.851562 541.261719 317.765625 542.066406 316.640625 542.820312 C 315.515625 543.570312 314.355469 544.265625 313.160156 544.90625 C 311.964844 545.542969 310.742188 546.121094 309.492188 546.640625 C 308.242188 547.160156 306.96875 547.613281 305.671875 548.007812 C 304.378906 548.402344 303.066406 548.730469 301.738281 548.992188 C 300.410156 549.257812 299.070312 549.457031 297.722656 549.589844 C 296.375 549.722656 295.027344 549.789062 293.671875 549.789062 L 247.410156 549.789062 C 246.09375 549.789062 244.777344 549.851562 243.46875 549.980469 C 242.160156 550.109375 240.859375 550.304688 239.566406 550.5625 C 238.273438 550.816406 237 551.136719 235.738281 551.519531 C 234.480469 551.902344 233.242188 552.34375 232.027344 552.847656 C 230.808594 553.351562 229.621094 553.914062 228.460938 554.535156 C 227.300781 555.15625 226.171875 555.832031 225.078125 556.566406 C 223.980469 557.296875 222.925781 558.078125 221.90625 558.914062 C 220.890625 559.75 219.917969 560.632812 218.984375 561.566406 C 218.054688 562.496094 217.171875 563.46875 216.335938 564.488281 C 215.5 565.507812 214.71875 566.5625 213.984375 567.65625 C 213.253906 568.753906 212.578125 569.878906 211.957031 571.042969 C 211.335938 572.203125 210.777344 573.390625 210.273438 574.609375 C 209.769531 575.824219 209.324219 577.0625 208.941406 578.324219 C 208.5625 579.585938 208.242188 580.859375 207.984375 582.152344 C 207.726562 583.441406 207.535156 584.742188 207.40625 586.054688 C 207.277344 587.363281 207.210938 588.679688 207.210938 589.996094 L 602.617188 589.996094 C 602.617188 588.679688 602.554688 587.363281 602.425781 586.054688 C 602.296875 584.742188 602.101562 583.441406 601.847656 582.152344 C 601.589844 580.859375 601.269531 579.585938 600.886719 578.324219 C 600.503906 577.0625 600.0625 575.824219 599.558594 574.609375 C 599.054688 573.390625 598.492188 572.203125 597.871094 571.042969 C 597.25 569.878906 596.574219 568.753906 595.84375 567.65625 C 595.113281 566.5625 594.328125 565.507812 593.492188 564.488281 C 592.660156 563.46875 591.777344 562.496094 590.84375 561.566406 C 589.914062 560.632812 588.941406 559.75 587.921875 558.914062 C 586.90625 558.078125 585.847656 557.296875 584.753906 556.5625 C 583.660156 555.832031 582.53125 555.15625 581.371094 554.535156 C 580.210938 553.914062 579.019531 553.351562 577.804688 552.847656 C 576.589844 552.34375 575.351562 551.902344 574.089844 551.519531 C 572.832031 551.136719 571.554688 550.816406 570.265625 550.5625 C 568.972656 550.304688 567.671875 550.109375 566.363281 549.980469 C 565.050781 549.851562 563.738281 549.789062 562.421875 549.789062 L 516.152344 549.789062 C 514.796875 549.789062 513.449219 549.722656 512.101562 549.589844 C 510.753906 549.457031 509.414062 549.257812 508.085938 548.992188 C 506.757812 548.730469 505.445312 548.402344 504.152344 548.007812 C 502.855469 547.613281 501.582031 547.160156 500.332031 546.640625 C 499.082031 546.121094 497.859375 545.542969 496.664062 544.90625 C 495.46875 544.265625 494.308594 543.570312 493.183594 542.820312 C 492.058594 542.066406 490.972656 541.261719 489.925781 540.402344 C 488.878906 539.542969 487.875 538.632812 486.917969 537.675781 C 485.960938 536.71875 485.054688 535.71875 484.195312 534.667969 C 483.335938 533.621094 482.53125 532.535156 481.777344 531.410156 C 481.023438 530.285156 480.328125 529.125 479.691406 527.929688 C 479.054688 526.734375 478.476562 525.511719 477.957031 524.261719 C 477.4375 523.011719 476.984375 521.734375 476.589844 520.441406 C 476.195312 519.144531 475.867188 517.832031 475.605469 516.503906 C 475.339844 515.175781 475.140625 513.835938 475.007812 512.488281 C 474.875 511.140625 474.808594 509.789062 474.808594 508.4375 L 474.808594 478.78125 L 687.230469 478.78125 C 688.90625 478.78125 690.582031 478.699219 692.25 478.535156 C 693.921875 478.371094 695.578125 478.125 697.222656 477.796875 C 698.871094 477.46875 700.496094 477.0625 702.101562 476.574219 C 703.707031 476.089844 705.285156 475.523438 706.835938 474.882812 C 708.382812 474.238281 709.898438 473.523438 711.378906 472.730469 C 712.859375 471.941406 714.296875 471.078125 715.691406 470.144531 C 717.085938 469.214844 718.433594 468.214844 719.730469 467.148438 C 721.027344 466.085938 722.269531 464.960938 723.453125 463.773438 C 724.640625 462.585938 725.765625 461.34375 726.832031 460.046875 C 727.894531 458.75 728.894531 457.402344 729.828125 456.007812 C 730.757812 454.613281 731.621094 453.175781 732.410156 451.695312 C 733.203125 450.214844 733.917969 448.699219 734.558594 447.148438 C 735.203125 445.597656 735.765625 444.019531 736.253906 442.414062 C 736.742188 440.808594 737.148438 439.179688 737.476562 437.535156 C 737.804688 435.890625 738.050781 434.230469 738.214844 432.5625 C 738.378906 430.890625 738.460938 429.214844 738.460938 427.539062 Z M 102.632812 408.625 L 102.632812 53.476562 C 102.632812 52.769531 102.667969 52.066406 102.738281 51.363281 C 102.808594 50.664062 102.910156 49.964844 103.046875 49.273438 C 103.1875 48.582031 103.355469 47.898438 103.5625 47.222656 C 103.765625 46.546875 104.003906 45.882812 104.273438 45.234375 C 104.542969 44.582031 104.84375 43.945312 105.175781 43.320312 C 105.507812 42.699219 105.871094 42.09375 106.261719 41.507812 C 106.65625 40.921875 107.074219 40.355469 107.523438 39.8125 C 107.96875 39.265625 108.441406 38.742188 108.941406 38.246094 C 109.441406 37.746094 109.960938 37.273438 110.507812 36.824219 C 111.054688 36.378906 111.617188 35.957031 112.207031 35.566406 C 112.792969 35.175781 113.394531 34.8125 114.019531 34.480469 C 114.640625 34.148438 115.277344 33.847656 115.929688 33.578125 C 116.578125 33.304688 117.242188 33.070312 117.917969 32.863281 C 118.59375 32.660156 119.277344 32.488281 119.96875 32.351562 C 120.660156 32.214844 121.355469 32.109375 122.058594 32.039062 C 122.761719 31.972656 123.464844 31.9375 124.167969 31.9375 L 685.65625 31.9375 C 686.359375 31.9375 687.0625 31.972656 687.765625 32.039062 C 688.46875 32.109375 689.164062 32.214844 689.855469 32.351562 C 690.546875 32.488281 691.230469 32.660156 691.90625 32.863281 C 692.582031 33.070312 693.246094 33.304688 693.894531 33.578125 C 694.546875 33.847656 695.183594 34.148438 695.804688 34.480469 C 696.429688 34.8125 697.03125 35.175781 697.617188 35.566406 C 698.207031 35.957031 698.769531 36.378906 699.316406 36.824219 C 699.863281 37.273438 700.382812 37.746094 700.882812 38.246094 C 701.382812 38.742188 701.855469 39.265625 702.300781 39.8125 C 702.75 40.355469 703.167969 40.921875 703.558594 41.507812 C 703.953125 42.09375 704.316406 42.699219 704.648438 43.320312 C 704.980469 43.945312 705.28125 44.582031 705.550781 45.234375 C 705.820312 45.882812 706.058594 46.546875 706.261719 47.222656 C 706.46875 47.898438 706.636719 48.582031 706.777344 49.273438 C 706.914062 49.964844 707.015625 50.664062 707.085938 51.363281 C 707.15625 52.066406 707.191406 52.769531 707.191406 53.476562 L 707.191406 408.625 C 707.191406 409.332031 707.15625 410.035156 707.085938 410.734375 C 707.015625 411.4375 706.914062 412.136719 706.777344 412.828125 C 706.636719 413.519531 706.46875 414.203125 706.261719 414.878906 C 706.058594 415.550781 705.820312 416.214844 705.550781 416.867188 C 705.28125 417.519531 704.980469 418.15625 704.648438 418.777344 C 704.316406 419.402344 703.953125 420.003906 703.558594 420.589844 C 703.167969 421.179688 702.75 421.742188 702.300781 422.289062 C 701.855469 422.835938 701.382812 423.355469 700.882812 423.855469 C 700.382812 424.355469 699.863281 424.828125 699.316406 425.273438 C 698.769531 425.722656 698.207031 426.140625 697.617188 426.535156 C 697.03125 426.925781 696.429688 427.289062 695.804688 427.621094 C 695.183594 427.953125 694.546875 428.253906 693.894531 428.523438 C 693.246094 428.792969 692.582031 429.03125 691.90625 429.234375 C 691.230469 429.441406 690.546875 429.613281 689.855469 429.75 C 689.164062 429.886719 688.46875 429.992188 687.765625 430.058594 C 687.0625 430.128906 686.359375 430.164062 685.65625 430.164062 L 124.167969 430.164062 C 123.464844 430.164062 122.761719 430.128906 122.058594 430.058594 C 121.355469 429.992188 120.660156 429.886719 119.96875 429.75 C 119.277344 429.613281 118.59375 429.441406 117.917969 429.234375 C 117.242188 429.03125 116.578125 428.792969 115.929688 428.523438 C 115.277344 428.253906 114.640625 427.953125 114.019531 427.621094 C 113.394531 427.289062 112.792969 426.925781 112.207031 426.535156 C 111.617188 426.140625 111.054688 425.722656 110.507812 425.273438 C 109.960938 424.828125 109.441406 424.355469 108.941406 423.855469 C 108.441406 423.355469 107.96875 422.835938 107.523438 422.289062 C 107.074219 421.742188 106.65625 421.179688 106.261719 420.589844 C 105.871094 420.003906 105.507812 419.402344 105.175781 418.777344 C 104.84375 418.15625 104.542969 417.519531 104.273438 416.867188 C 104.003906 416.214844 103.765625 415.550781 103.5625 414.878906 C 103.355469 414.203125 103.1875 413.519531 103.046875 412.828125 C 102.910156 412.136719 102.808594 411.4375 102.738281 410.734375 C 102.667969 410.035156 102.632812 409.332031 102.632812 408.625 Z M 102.632812 408.625 " fill-opacity="1" fill-rule="nonzero"/></g></svg>