<svg xmlns="http://www.w3.org/2000/svg" xmlns:xlink="http://www.w3.org/1999/xlink" width="1080" zoomAndPan="magnify" viewBox="0 0 810 591.000005" height="788" preserveAspectRatio="xMidYMid meet" version="1.0"><defs><clipPath id="911600df49"><path d="M 2 0 L 807 0 L 807 590 L 2 590 Z M 2 0 " clip-rule="nonzero"/></clipPath></defs><g clip-path="url(#911600df49)"><path fill="#000000" d="M 806.808594 133.613281 C 806.808594 59.941406 747.113281 0.21875 673.46875 0.21875 C 530.5625 0.21875 278.265625 0.21875 135.355469 0.21875 C 61.714844 0.21875 2.003906 59.941406 2.003906 133.613281 C 2.003906 227.460938 2.003906 363.40625 2.003906 457.238281 C 2.003906 530.925781 61.714844 590.644531 135.355469 590.644531 C 278.265625 590.644531 530.5625 590.644531 673.46875 590.644531 C 747.113281 590.644531 806.808594 530.925781 806.808594 457.238281 Z M 513.332031 311.039062 L 422.703125 395.570312 C 412.402344 405.183594 396.421875 405.183594 386.121094 395.570312 L 301.738281 316.875 L 103.320312 530.265625 C 113.117188 534.570312 123.960938 536.964844 135.355469 536.964844 C 135.355469 536.964844 673.46875 536.964844 673.46875 536.964844 C 685.085938 536.964844 696.105469 534.480469 706.0625 530.023438 Z M 65.023438 96.085938 L 262.492188 280.265625 L 64.316406 493.398438 C 58.777344 482.550781 55.660156 470.261719 55.660156 457.25 C 55.660156 457.238281 55.660156 133.613281 55.660156 133.613281 C 55.660156 120.046875 59.046875 107.269531 65.023438 96.085938 Z M 743.804688 96.085938 C 749.777344 107.269531 753.164062 120.046875 753.164062 133.613281 L 753.164062 457.238281 C 753.164062 470.03125 750.152344 482.101562 744.808594 492.820312 L 552.59375 274.429688 Z M 703.910156 59.914062 L 404.40625 339.25 L 104.914062 59.914062 C 114.304688 56.039062 124.578125 53.886719 135.355469 53.886719 C 135.355469 53.886719 673.46875 53.886719 673.46875 53.886719 C 684.246094 53.886719 694.535156 56.039062 703.910156 59.914062 Z M 703.910156 59.914062 " fill-opacity="1" fill-rule="evenodd"/></g></svg>